# xmcd CD database file
#
# Track frame offsets:
#	150
#	21007
#	40822
#
# Disc length: 807 seconds
#
# Revision: 0
# Processed by: cddbd v1.5.1PL0 Copyright (c) Steve Scherf et al.
# Submitted via: CDex 1.60beta1
#
DISCID=19032503
DTITLE=宮沢和史 - コシカ/ひとつしかない地球
DYEAR=2005
DGENRE=JPop
TTITLE0=コシカ
TTITLE1=ひとつしかない地球
TTITLE2=ひとつしかない地球〜The One and Only Earth〜
EXTD=YEAR: 2005
EXTT0=
EXTT1=
EXTT2=
PLAYORDER=
